<?xml version="1.0" encoding="UTF-8"?>
<svg id="Layer_1" data-name="Layer 1" xmlns="http://www.w3.org/2000/svg" viewBox="0 0 140.08 149.27">
  <path d="M129.9,122.97h0c0-4.59-2.22-8.71-5.63-11.6-3.42-2.9-8.06-4.66-13.13-4.66h-46.85s0,4.17,0,4.17h46.85c4.1,0,7.8,1.43,10.43,3.67,2.63,2.24,4.16,5.21,4.16,8.42,0,3.21-1.53,6.18-4.16,8.42-2.63,2.24-6.33,3.67-10.43,3.67H43.72s0,4.17,0,4.17h67.42c5.07,0,9.71-1.76,13.13-4.66,3.42-2.89,5.64-7.01,5.63-11.6Z"/>
  <path d="M10.2,74.61c0,4.58,2.22,8.71,5.63,11.6,3.42,2.9,8.06,4.66,13.13,4.66h65.34s0-4.17,0-4.17H28.96c-4.1,0-7.8-1.43-10.43-3.67-2.63-2.25-4.16-5.21-4.16-8.42,0-3.21,1.53-6.18,4.16-8.42,2.63-2.23,6.33-3.67,10.43-3.67h34.83s0-4.17,0-4.17H28.96c-5.07,0-9.71,1.76-13.13,4.66-3.41,2.89-5.63,7.01-5.63,11.6Z"/>
  <path d="M129.9,26.25h0c0-4.59-2.22-8.71-5.63-11.6-3.42-2.9-8.06-4.66-13.13-4.66h-46.85s0,4.17,0,4.17h46.85c4.1,0,7.8,1.43,10.43,3.67,2.63,2.25,4.16,5.21,4.16,8.42,0,3.21-1.53,6.18-4.16,8.42-2.63,2.23-6.33,3.67-10.43,3.67H43.72s0,4.17,0,4.17h67.42c5.07,0,9.71-1.76,13.13-4.66,3.42-2.89,5.64-7.01,5.63-11.6Z"/>
  <path d="M140.08,122.97c0,14.52-12.22,26.26-27.08,26.26H27.12c-.17,0-.35,0-.52.04v-4.16c.17-.04.3-.04.48-.04h85.92c6.33,0,12.05-2.51,16.21-6.5,4.16-4.03,6.72-9.53,6.72-15.6s-2.56-11.57-6.72-15.55c-4.16-4.03-9.88-6.54-16.21-6.54H27.12C12.26,100.87.04,89.13,0,74.61c0-7.24,3.08-13.82,7.97-18.59,4.94-4.72,11.7-7.67,19.11-7.67h85.92c6.33,0,12.05-2.51,16.21-6.54,4.16-3.99,6.72-9.49,6.72-15.55s-2.56-11.57-6.72-15.6c-4.16-3.99-9.88-6.5-16.21-6.5H27.34V0h85.66c14.86,0,27.08,11.74,27.08,26.26s-12.22,26.26-27.08,26.26H27.12c-6.33,0-12.09,2.51-16.25,6.5-4.16,4.03-6.67,9.53-6.72,15.6.04,6.07,2.56,11.57,6.72,15.6,4.16,3.99,9.92,6.5,16.25,6.5h85.88c14.86,0,27.08,11.74,27.08,26.26Z"/>
  <path d="M51.78,77.53h-23.37c-1.39,0-2.62-.45-3.42-1.08-.81-.64-1.14-1.33-1.14-1.98,0-.65.33-1.34,1.14-1.98.8-.63,2.03-1.08,3.42-1.08h52.27s0-4.17,0-4.17H28.41c-2.27,0-4.36.71-5.97,1.95-1.6,1.22-2.77,3.1-2.77,5.28,0,2.18,1.16,4.06,2.77,5.28,1.61,1.24,3.7,1.94,5.97,1.95h23.37s0-4.17,0-4.17Z"/>
  <path d="M53.45,119.64h58.39c1.39,0,2.62.45,3.42,1.08.81.64,1.14,1.33,1.14,1.98,0,.65-.33,1.34-1.14,1.98-.8.62-2.03,1.08-3.42,1.08h-36.71s0,4.17,0,4.17h36.71c2.27,0,4.36-.71,5.97-1.94,1.6-1.23,2.76-3.1,2.76-5.28,0-2.18-1.16-4.06-2.76-5.28-1.61-1.24-3.7-1.94-5.97-1.95h-58.39s0,4.17,0,4.17Z"/>
  <path d="M53.45,23.47h58.39c1.39,0,2.62.45,3.42,1.08.81.64,1.14,1.33,1.14,1.98,0,.65-.33,1.34-1.14,1.98-.8.62-2.03,1.08-3.42,1.07h-36.71s0,4.17,0,4.17h36.71c2.27,0,4.36-.71,5.97-1.95,1.6-1.23,2.76-3.1,2.76-5.28s-1.16-4.06-2.76-5.28c-1.61-1.24-3.7-1.94-5.97-1.94h-58.39s0,4.17,0,4.17Z"/>
</svg>
